<svg width="18" height="18" viewBox="0 0 18 18" fill="none" xmlns="http://www.w3.org/2000/svg">
<path d="M6.95833 5.58333H6.9675M11.5417 5.58333H11.5508M14.75 1C15.4793 1 16.1788 1.28973 16.6945 1.80546C17.2103 2.32118 17.5 3.02065 17.5 3.75V11.0833C17.5 11.8127 17.2103 12.5122 16.6945 13.0279C16.1788 13.5436 15.4793 13.8333 14.75 13.8333H10.1667L5.58333 16.5833V13.8333H3.75C3.02065 13.8333 2.32118 13.5436 1.80546 13.0279C1.28973 12.5122 1 11.8127 1 11.0833V3.75C1 3.02065 1.28973 2.32118 1.80546 1.80546C2.32118 1.28973 3.02065 1 3.75 1H14.75Z" stroke="black" stroke-width="0.7" stroke-linecap="round" stroke-linejoin="round"/>
<path d="M6.70833 9.69092C7.00705 9.99003 7.36361 10.2276 7.75711 10.3899C8.15062 10.5521 8.57316 10.6356 8.99999 10.6356C9.42683 10.6356 9.84937 10.5521 10.2429 10.3899C10.6364 10.2276 10.9929 9.99003 11.2917 9.69092" stroke="black" stroke-width="0.7" stroke-linecap="round" stroke-linejoin="round"/>
</svg>
