<svg width="16" height="16" viewBox="0 0 16 16" fill="none" xmlns="http://www.w3.org/2000/svg">
<path d="M4.76 0.0799561C2.1797 0.0799561 0.0800018 2.17965 0.0800018 4.75996V11.24C0.0800018 13.8203 2.1797 15.92 4.76 15.92H11.24C13.8203 15.92 15.92 13.8203 15.92 11.24V4.75996C15.92 2.17965 13.8203 0.0799561 11.24 0.0799561H4.76ZM4.76 0.799956H11.24C13.4311 0.799956 15.2 2.56882 15.2 4.75996V11.24C15.2 13.4311 13.4311 15.2 11.24 15.2H4.76C2.56887 15.2 0.800002 13.4311 0.800002 11.24V4.75996C0.800002 2.56882 2.56887 0.799956 4.76 0.799956ZM12.32 2.95996C12.129 2.95996 11.9459 3.03581 11.8109 3.17084C11.6759 3.30587 11.6 3.489 11.6 3.67996C11.6 3.87091 11.6759 4.05405 11.8109 4.18907C11.9459 4.3241 12.129 4.39996 12.32 4.39996C12.511 4.39996 12.6941 4.3241 12.8291 4.18907C12.9641 4.05405 13.04 3.87091 13.04 3.67996C13.04 3.489 12.9641 3.30587 12.8291 3.17084C12.6941 3.03581 12.511 2.95996 12.32 2.95996ZM8 4.03996C5.81722 4.03996 4.04 5.81717 4.04 7.99996C4.04 10.1827 5.81722 11.96 8 11.96C10.1828 11.96 11.96 10.1827 11.96 7.99996C11.96 5.81717 10.1828 4.03996 8 4.03996ZM8 4.75996C9.79367 4.75996 11.24 6.20629 11.24 7.99996C11.24 9.79362 9.79367 11.24 8 11.24C6.20634 11.24 4.76 9.79362 4.76 7.99996C4.76 6.20629 6.20634 4.75996 8 4.75996Z" fill="black"/>
</svg>
