<svg width="45" height="45" viewBox="0 0 45 45" fill="none" xmlns="http://www.w3.org/2000/svg">
<path fill-rule="evenodd" clip-rule="evenodd" d="M34.1405 39.4962C35.05 40.4057 36.5247 40.4057 37.4342 39.4962L39.081 37.8493C39.9906 36.9398 39.9906 35.4652 39.081 34.5556L30.6186 26.0932L22.2009 22.616L25.6121 30.9677L34.1405 39.4962Z" fill="#99BBD3"/>
<path fill-rule="evenodd" clip-rule="evenodd" d="M42.6471 26.4705C43.9466 26.4705 45 25.4171 45 24.1176V21.7646C45 20.4651 43.9466 19.4117 42.6471 19.4117H30.5563L22.0588 22.9411L30.4619 26.4705H42.6471Z" fill="#EEBCBE"/>
<path fill-rule="evenodd" clip-rule="evenodd" d="M2.26244 26.4705C1.01293 26.4705 0 25.4171 0 24.1176L0 21.7646C0 20.4651 1.01293 19.4117 2.26244 19.4117H13.8882L22.0588 22.9411L13.9789 26.4705H2.26244Z" fill="#EEBCBE"/>
<path fill-rule="evenodd" clip-rule="evenodd" d="M5.53991 10.8962C4.63038 9.98664 4.63038 8.51201 5.53991 7.60249L7.18675 5.95565C8.09628 5.04612 9.57091 5.04612 10.4804 5.95565L18.9429 14.4181L22.42 22.8358L14.0684 19.4246L5.53991 10.8962Z" fill="#99BBD3"/>
<path fill-rule="evenodd" clip-rule="evenodd" d="M10.4806 39.4962C9.57105 40.4057 8.09643 40.4057 7.1869 39.4962L5.54006 37.8493C4.63053 36.9398 4.63053 35.4652 5.54006 34.5556L14.0025 26.0932L22.4202 22.616L19.009 30.9677L10.4806 39.4962Z" fill="#449E5B"/>
<path fill-rule="evenodd" clip-rule="evenodd" d="M39.0809 10.8962C39.9905 9.98664 39.9905 8.51201 39.0809 7.60249L37.4341 5.95565C36.5246 5.04612 35.0499 5.04612 34.1404 5.95565L25.678 14.4181L22.2008 22.8358L30.5525 19.4246L39.0809 10.8962Z" fill="#449E5B"/>
<path fill-rule="evenodd" clip-rule="evenodd" d="M18.5293 42.7376C18.5293 43.9871 19.5827 45 20.8822 45H23.2352C24.5347 45 25.5881 43.9871 25.5881 42.7376V31.1118L22.0587 22.9412L18.5293 31.0211V42.7376Z" fill="#DF6431"/>
<path fill-rule="evenodd" clip-rule="evenodd" d="M18.5293 2.35294C18.5293 1.05345 19.5827 0 20.8822 0H23.2352C24.5347 0 25.5881 1.05345 25.5881 2.35294V14.4437L22.0587 22.9412L18.5293 14.5381V2.35294Z" fill="#DF6431"/>
</svg>
