<svg width="18" height="12" viewBox="0 0 18 12" fill="none" xmlns="http://www.w3.org/2000/svg">
<path d="M17.332 0.402025C17.332 0.399494 17.332 0.397244 17.3313 0.394713C17.3306 0.392182 17.3303 0.385854 17.3301 0.381494C17.3285 0.36197 17.3246 0.342706 17.3184 0.324119C17.3175 0.321588 17.3184 0.318916 17.3168 0.316385C17.3153 0.313854 17.3154 0.314275 17.315 0.31315C17.307 0.292723 17.2963 0.273471 17.2831 0.255916C17.2801 0.251979 17.277 0.248463 17.2738 0.244666C17.261 0.229161 17.2464 0.215277 17.2302 0.203322C17.2285 0.202057 17.2271 0.20051 17.2254 0.199385C17.2074 0.187482 17.1878 0.178025 17.1672 0.17126C17.1624 0.169572 17.1577 0.168166 17.1532 0.16676C17.1315 0.160265 17.1091 0.15681 17.0865 0.156494H0.914065C0.891477 0.15681 0.869044 0.160265 0.847408 0.16676C0.842486 0.168166 0.837846 0.169572 0.833346 0.17126C0.812783 0.178025 0.793207 0.187482 0.775127 0.199385C0.77344 0.20051 0.772033 0.202057 0.770346 0.203322C0.754185 0.215277 0.739545 0.229161 0.726752 0.244666C0.723658 0.248463 0.720424 0.251979 0.717471 0.255916C0.704303 0.273471 0.693566 0.292723 0.685549 0.31315C0.685549 0.314275 0.684143 0.31526 0.683721 0.316385C0.683299 0.31751 0.683018 0.321588 0.682174 0.324119C0.675993 0.342706 0.672074 0.36197 0.670502 0.381494C0.670502 0.385994 0.669236 0.390354 0.669236 0.394713C0.669236 0.399072 0.668533 0.399494 0.668533 0.402025V11.5979C0.668533 11.6011 0.669377 11.6042 0.669518 11.6074C0.669928 11.6163 0.67082 11.6251 0.67219 11.6339C0.673315 11.6411 0.674299 11.6479 0.675986 11.6553C0.678157 11.6638 0.680786 11.6722 0.683861 11.6804C0.686252 11.687 0.688502 11.6937 0.691455 11.7C0.695355 11.7083 0.699721 11.7164 0.704533 11.7242C0.707908 11.7298 0.711283 11.7356 0.71508 11.7409C0.720532 11.7484 0.726401 11.7555 0.732658 11.7623C0.737299 11.7673 0.74194 11.7724 0.746721 11.7772C0.749674 11.7799 0.751924 11.7831 0.755018 11.7858C0.758111 11.7884 0.76008 11.7881 0.76233 11.79C0.781529 11.8054 0.802959 11.8179 0.825893 11.827C0.830815 11.8289 0.835877 11.8301 0.84094 11.8316C0.863124 11.8389 0.886235 11.8429 0.909565 11.8436C0.911252 11.8436 0.912799 11.8444 0.914486 11.8444H0.917721H17.0828H17.0861C17.0878 11.8444 17.0893 11.8436 17.0909 11.8436C17.1142 11.8429 17.1374 11.8389 17.1596 11.8316C17.1645 11.8301 17.1695 11.8289 17.1737 11.827C17.1967 11.8179 17.2182 11.8055 17.2374 11.79C17.2396 11.7881 17.2425 11.7876 17.2447 11.7858C17.247 11.7839 17.25 11.7799 17.253 11.7772C17.2581 11.7724 17.2627 11.7675 17.2671 11.7623C17.2733 11.7555 17.2792 11.7484 17.2846 11.7409C17.2884 11.7356 17.2918 11.7299 17.2952 11.7242C17.3 11.7164 17.3044 11.7083 17.3083 11.7C17.3112 11.6937 17.3135 11.687 17.3159 11.6804C17.3189 11.6722 17.3216 11.6638 17.3237 11.6553C17.3254 11.6482 17.3264 11.6412 17.3275 11.6339C17.3289 11.6251 17.3298 11.6163 17.3302 11.6074C17.3302 11.6042 17.3312 11.6011 17.3312 11.5979L17.332 0.402025ZM6.44063 5.48196L8.83941 7.54592C8.88408 7.58432 8.94103 7.60543 8.99993 7.60543C9.05884 7.60543 9.11579 7.58432 9.16045 7.54592L11.5594 5.48196L16.5533 11.3518H1.44689L6.44063 5.48196ZM1.16016 10.9292V0.93851L6.06797 5.16092L1.16016 10.9292ZM11.932 5.16092L16.8398 0.93851V10.9292L11.932 5.16092ZM16.4223 0.648119L11.4294 4.94435C11.4286 4.94506 11.4275 4.94548 11.4266 4.94632C11.4258 4.94717 11.4249 4.94829 11.424 4.94913L9 7.03474L6.57605 4.94913C6.57506 4.94829 6.57436 4.94717 6.57338 4.94632L6.57056 4.94435L1.57739 0.648119H16.4223Z" fill="black"/>
</svg>
