<svg width="14" height="14" viewBox="0 0 14 14" fill="none" xmlns="http://www.w3.org/2000/svg">
<path fill-rule="evenodd" clip-rule="evenodd" d="M7.41245 9.16245C7.30306 9.27181 7.15472 9.33325 7.00004 9.33325C6.84536 9.33325 6.69701 9.27181 6.58762 9.16245L3.2877 5.86254C3.23199 5.80873 3.18755 5.74436 3.15698 5.67319C3.12641 5.60202 3.11031 5.52548 3.10964 5.44802C3.10897 5.37057 3.12373 5.29375 3.15306 5.22206C3.18239 5.15037 3.2257 5.08524 3.28047 5.03047C3.33524 4.9757 3.40037 4.93239 3.47206 4.90306C3.54375 4.87373 3.62057 4.85897 3.69802 4.85964C3.77548 4.86031 3.85202 4.87641 3.92319 4.90698C3.99436 4.93755 4.05873 4.98199 4.11254 5.0377L7.00004 7.9252L9.88754 5.0377C9.99756 4.93144 10.1449 4.87265 10.2979 4.87398C10.4508 4.87531 10.5971 4.93665 10.7053 5.04481C10.8134 5.15296 10.8748 5.29927 10.8761 5.45222C10.8774 5.60517 10.8186 5.75252 10.7124 5.86254L7.41245 9.16245Z" fill="black"/>
</svg>
