<svg width="55" height="45" viewBox="0 0 55 45" fill="none" xmlns="http://www.w3.org/2000/svg">
<mask id="path-1-outside-1_1457_3184" maskUnits="userSpaceOnUse" x="0" y="3.53809" width="40" height="41" fill="black">
<rect fill="white" y="3.53809" width="40" height="41"/>
<path d="M37.9959 23.5028C37.5138 23.501 36.746 24.0372 36.746 24.8261V33.6566C36.7462 33.9315 36.6679 34.2005 36.5209 34.4304C36.3738 34.6604 36.1644 34.8412 35.9184 34.9506L22.1699 41.0625C21.9606 41.1556 21.7321 41.1938 21.5048 41.1738C21.2776 41.1537 21.0587 41.076 20.8681 40.9477C20.6774 40.8193 20.5209 40.6443 20.4126 40.4385C20.3043 40.2326 20.2477 40.0024 20.2479 39.7685V26.0928C20.2479 25.5289 20.5778 25.0187 21.081 24.796L27.997 21.9651L29.9968 20.94C30.4967 20.4274 30.4439 20.1441 29.9968 19.9148C28.9969 19.4022 26.9971 19.4022 25.9972 19.9148L19.9976 22.2052C19.2557 22.5313 18.6233 23.0734 18.179 23.7645C17.7347 24.4556 17.498 25.2651 17.4982 26.0928V39.7713C17.4982 40.4727 17.6684 41.163 17.9934 41.7802C18.3184 42.3973 18.788 42.9219 19.3599 43.3067C19.9319 43.6914 20.5882 43.9243 21.2697 43.9843C21.9513 44.0444 22.6367 43.9296 23.2643 43.6505L37.0127 37.5358C37.7504 37.2077 38.3784 36.6657 38.8195 35.9765C39.2606 35.2873 39.4957 34.4809 39.4957 33.6566V24.8261C39.4957 24.3136 39.1381 23.5073 37.9959 23.5028ZM26.4972 12.2262L24.9973 11.7136H23.4975L11.7513 16.5668C11.0092 16.8923 10.3766 17.4339 9.93184 18.1244C9.48706 18.815 9.24967 19.6241 9.24908 20.4516V34.133C9.24918 34.8095 9.40756 35.4761 9.71093 36.0768C10.0143 36.6775 10.4538 37.1948 10.9926 37.5853C11.5313 37.9759 12.1536 38.2282 12.8071 38.3211C13.4607 38.414 14.1264 38.3448 14.7485 38.1193V35.0633L13.9153 35.4298C13.7061 35.5218 13.4779 35.559 13.2512 35.5383C13.0244 35.5175 12.8063 35.4393 12.6163 35.3107C12.4263 35.1822 12.2705 35.0073 12.1627 34.8017C12.0549 34.5962 11.9986 34.3664 11.9988 34.133V20.4516C11.9988 19.8878 12.3287 19.3804 12.8319 19.1548L26.9971 13.2514C27.6005 13.2514 26.8896 12.363 26.4972 12.2262ZM20.1379 4.74427L20.4458 4.86168C19.9384 4.64389 19.3931 4.53385 18.843 4.53821C18.2929 4.54257 17.7493 4.66124 17.2452 4.88706L5.16579 10.1955C3.92929 10.739 2.87549 11.6425 2.13501 12.7941C1.39452 13.9456 0.99988 15.2947 1 16.674V28.5032C1.00009 29.1796 1.15847 29.8462 1.46185 30.4469C1.76522 31.0476 2.20473 31.565 2.74348 31.9555C3.28223 32.346 3.90449 32.5983 4.55803 32.6912C5.21158 32.7841 5.87733 32.7149 6.49939 32.4895V29.4335L5.66623 29.8C5.45702 29.8919 5.22881 29.9292 5.00209 29.9084C4.77536 29.8876 4.55722 29.8094 4.36724 29.6809C4.17726 29.5523 4.02138 29.3774 3.91359 29.1719C3.80581 28.9663 3.74949 28.7365 3.74969 28.5032V16.6768C3.74969 14.9853 4.73408 13.4573 6.25192 12.7892L21.4977 6.07531C21.9977 5.70457 22.4976 5.56273 21.4977 5.05016C20.322 4.74427 19.4979 4.58735 20.1379 4.74427Z"/>
</mask>
<path d="M37.9959 23.5028C37.5138 23.501 36.746 24.0372 36.746 24.8261V33.6566C36.7462 33.9315 36.6679 34.2005 36.5209 34.4304C36.3738 34.6604 36.1644 34.8412 35.9184 34.9506L22.1699 41.0625C21.9606 41.1556 21.7321 41.1938 21.5048 41.1738C21.2776 41.1537 21.0587 41.076 20.8681 40.9477C20.6774 40.8193 20.5209 40.6443 20.4126 40.4385C20.3043 40.2326 20.2477 40.0024 20.2479 39.7685V26.0928C20.2479 25.5289 20.5778 25.0187 21.081 24.796L27.997 21.9651L29.9968 20.94C30.4967 20.4274 30.4439 20.1441 29.9968 19.9148C28.9969 19.4022 26.9971 19.4022 25.9972 19.9148L19.9976 22.2052C19.2557 22.5313 18.6233 23.0734 18.179 23.7645C17.7347 24.4556 17.498 25.2651 17.4982 26.0928V39.7713C17.4982 40.4727 17.6684 41.163 17.9934 41.7802C18.3184 42.3973 18.788 42.9219 19.3599 43.3067C19.9319 43.6914 20.5882 43.9243 21.2697 43.9843C21.9513 44.0444 22.6367 43.9296 23.2643 43.6505L37.0127 37.5358C37.7504 37.2077 38.3784 36.6657 38.8195 35.9765C39.2606 35.2873 39.4957 34.4809 39.4957 33.6566V24.8261C39.4957 24.3136 39.1381 23.5073 37.9959 23.5028ZM26.4972 12.2262L24.9973 11.7136H23.4975L11.7513 16.5668C11.0092 16.8923 10.3766 17.4339 9.93184 18.1244C9.48706 18.815 9.24967 19.6241 9.24908 20.4516V34.133C9.24918 34.8095 9.40756 35.4761 9.71093 36.0768C10.0143 36.6775 10.4538 37.1948 10.9926 37.5853C11.5313 37.9759 12.1536 38.2282 12.8071 38.3211C13.4607 38.414 14.1264 38.3448 14.7485 38.1193V35.0633L13.9153 35.4298C13.7061 35.5218 13.4779 35.559 13.2512 35.5383C13.0244 35.5175 12.8063 35.4393 12.6163 35.3107C12.4263 35.1822 12.2705 35.0073 12.1627 34.8017C12.0549 34.5962 11.9986 34.3664 11.9988 34.133V20.4516C11.9988 19.8878 12.3287 19.3804 12.8319 19.1548L26.9971 13.2514C27.6005 13.2514 26.8896 12.363 26.4972 12.2262ZM20.1379 4.74427L20.4458 4.86168C19.9384 4.64389 19.3931 4.53385 18.843 4.53821C18.2929 4.54257 17.7493 4.66124 17.2452 4.88706L5.16579 10.1955C3.92929 10.739 2.87549 11.6425 2.13501 12.7941C1.39452 13.9456 0.99988 15.2947 1 16.674V28.5032C1.00009 29.1796 1.15847 29.8462 1.46185 30.4469C1.76522 31.0476 2.20473 31.565 2.74348 31.9555C3.28223 32.346 3.90449 32.5983 4.55803 32.6912C5.21158 32.7841 5.87733 32.7149 6.49939 32.4895V29.4335L5.66623 29.8C5.45702 29.8919 5.22881 29.9292 5.00209 29.9084C4.77536 29.8876 4.55722 29.8094 4.36724 29.6809C4.17726 29.5523 4.02138 29.3774 3.91359 29.1719C3.80581 28.9663 3.74949 28.7365 3.74969 28.5032V16.6768C3.74969 14.9853 4.73408 13.4573 6.25192 12.7892L21.4977 6.07531C21.9977 5.70457 22.4976 5.56273 21.4977 5.05016C20.322 4.74427 19.4979 4.58735 20.1379 4.74427Z" fill="#69A4CD"/>
<path d="M37.9959 23.5028L37.9971 23.1953L37.9959 23.5028ZM36.746 33.6566H36.4385V33.6568L36.746 33.6566ZM35.9184 34.9506L36.0433 35.2316L36.0434 35.2316L35.9184 34.9506ZM22.1699 41.0625L22.045 40.7815L22.0449 40.7815L22.1699 41.0625ZM20.2479 39.7685L20.5554 39.7687V39.7685H20.2479ZM21.081 24.796L20.9645 24.5112L20.9565 24.5147L21.081 24.796ZM27.997 21.9651L28.1135 22.2497L28.1256 22.2448L28.1373 22.2388L27.997 21.9651ZM29.9968 20.94L30.1371 21.2137L30.1818 21.1907L30.2169 21.1547L29.9968 20.94ZM25.9972 19.9148L26.1069 20.2021L26.1226 20.1962L26.1375 20.1885L25.9972 19.9148ZM19.9976 22.2052L19.888 21.9178L19.8809 21.9205L19.8739 21.9236L19.9976 22.2052ZM17.4982 26.0928H17.8057V26.0927L17.4982 26.0928ZM17.4982 39.7713H17.1906V39.7714L17.4982 39.7713ZM23.2643 43.6505L23.1393 43.3695L23.1393 43.3695L23.2643 43.6505ZM37.0127 37.5358L37.1377 37.8168L37.1377 37.8168L37.0127 37.5358ZM39.4957 33.6566L39.8033 33.6566V33.6566H39.4957ZM26.4972 12.2262L26.5984 11.9358L26.5966 11.9352L26.4972 12.2262ZM23.4975 11.7136V11.4061C23.4572 11.4061 23.4173 11.414 23.3801 11.4294L23.4975 11.7136ZM11.7513 16.5668L11.6338 16.2825L11.6278 16.2852L11.7513 16.5668ZM9.24908 20.4516L8.94154 20.4514V20.4516H9.24908ZM9.24908 34.133H8.94154V34.1331L9.24908 34.133ZM14.7485 38.1193L14.8533 38.4085L15.056 38.335V38.1193H14.7485ZM14.7485 35.0633H15.056V34.5921L14.6246 34.7818L14.7485 35.0633ZM13.9153 35.4298L14.0391 35.7114L14.0391 35.7113L13.9153 35.4298ZM11.9988 34.133L12.3063 34.1333V34.133H11.9988ZM12.8319 19.1548L12.7136 18.8709L12.7061 18.8742L12.8319 19.1548ZM26.9971 13.2514V12.9438H26.9356L26.8788 12.9675L26.9971 13.2514ZM20.1379 4.74427L20.2475 4.45691L20.2297 4.45011L20.2112 4.44557L20.1379 4.74427ZM20.4458 4.86168L20.3363 5.14905L20.5671 4.57907L20.4458 4.86168ZM17.2452 4.88706L17.3689 5.16862L17.3709 5.16773L17.2452 4.88706ZM5.16579 10.1955L5.04205 9.91398L5.04204 9.91398L5.16579 10.1955ZM1 16.674H1.30754V16.6739L1 16.674ZM1 28.5032H0.692455V28.5032L1 28.5032ZM6.49939 32.4895L6.6042 32.7786L6.80693 32.7051V32.4895H6.49939ZM6.49939 29.4335H6.80693V28.9622L6.37556 29.152L6.49939 29.4335ZM5.66623 29.8L5.78997 30.0815L5.79006 30.0815L5.66623 29.8ZM3.74969 28.5032L4.05724 28.5034V28.5032H3.74969ZM6.25192 12.7892L6.37582 13.0706L6.37586 13.0706L6.25192 12.7892ZM21.4977 6.07531L21.6217 6.35677L21.6532 6.34288L21.6809 6.32234L21.4977 6.07531ZM21.4977 5.05016L21.638 4.77648L21.6079 4.76104L21.5752 4.75252L21.4977 5.05016ZM24.9973 11.7136L25.0968 11.4226L25.0484 11.4061H24.9973V11.7136ZM37.9971 23.1953C37.6581 23.194 37.2741 23.3723 36.9817 23.6418C36.682 23.9181 36.4385 24.3266 36.4385 24.8261H37.0536C37.0536 24.5368 37.1939 24.2827 37.3986 24.0941C37.6106 23.8987 37.8516 23.8098 37.9947 23.8104L37.9971 23.1953ZM36.4385 24.8261V33.6566H37.0536V24.8261H36.4385ZM36.4385 33.6568C36.4386 33.8734 36.3769 34.0847 36.2618 34.2647L36.7799 34.5961C36.9589 34.3163 37.0538 33.9897 37.0536 33.6564L36.4385 33.6568ZM36.2618 34.2647C36.1467 34.4446 35.9836 34.585 35.7934 34.6696L36.0434 35.2316C36.3452 35.0973 36.6009 34.8761 36.7799 34.5961L36.2618 34.2647ZM35.7934 34.6696L22.045 40.7815L22.2948 41.3435L36.0433 35.2316L35.7934 34.6696ZM22.0449 40.7815C21.8832 40.8535 21.7069 40.8829 21.5319 40.8674L21.4778 41.4801C21.7573 41.5048 22.0381 41.4577 22.2949 41.3435L22.0449 40.7815ZM21.5319 40.8674C21.3568 40.852 21.1877 40.7921 21.0398 40.6925L20.6963 41.2028C20.9298 41.3599 21.1983 41.4555 21.4778 41.4801L21.5319 40.8674ZM21.0398 40.6925C20.8919 40.5929 20.7697 40.4566 20.6848 40.2953L20.1404 40.5816C20.2721 40.832 20.4629 41.0456 20.6963 41.2028L21.0398 40.6925ZM20.6848 40.2953C20.5999 40.1339 20.5553 39.9529 20.5554 39.7687L19.9403 39.7683C19.9401 40.0519 20.0088 40.3313 20.1404 40.5816L20.6848 40.2953ZM20.5554 39.7685V26.0928H19.9403V39.7685H20.5554ZM20.5554 26.0928C20.5554 25.6481 20.8159 25.2496 21.2055 25.0772L20.9565 24.5147C20.3398 24.7877 19.9403 25.4098 19.9403 26.0928H20.5554ZM21.1975 25.0806L28.1135 22.2497L27.8805 21.6805L20.9645 24.5113L21.1975 25.0806ZM28.1373 22.2388L30.1371 21.2137L29.8565 20.6663L27.8567 21.6914L28.1373 22.2388ZM30.2169 21.1547C30.4702 20.8951 30.6715 20.6125 30.6592 20.3087C30.6455 19.9681 30.3811 19.7662 30.1371 19.6411L29.8565 20.1885C29.951 20.237 30.0018 20.2772 30.0269 20.3052C30.0384 20.3179 30.0423 20.3257 30.0434 20.3283C30.0443 20.3302 30.0446 20.3312 30.0446 20.3335C30.0449 20.3391 30.0441 20.3722 30.0035 20.4433C29.9628 20.5145 29.8916 20.6073 29.7766 20.7252L30.2169 21.1547ZM30.1371 19.6411C29.5761 19.3536 28.7711 19.2228 27.997 19.2228C27.2229 19.2228 26.4179 19.3536 25.8569 19.6411L26.1375 20.1885C26.5765 19.9635 27.2713 19.8379 27.997 19.8379C28.7227 19.8379 29.4175 19.9635 29.8565 20.1885L30.1371 19.6411ZM25.8875 19.6275L19.888 21.9178L20.1073 22.4925L26.1069 20.2021L25.8875 19.6275ZM19.8739 21.9236C19.0758 22.2744 18.3968 22.857 17.9203 23.5982L18.4377 23.9308C18.8498 23.2899 19.4355 22.7881 20.1214 22.4867L19.8739 21.9236ZM17.9203 23.5982C17.4439 24.3393 17.1904 25.2066 17.1906 26.0928L17.8057 26.0927C17.8055 25.3236 18.0256 24.5719 18.4377 23.9308L17.9203 23.5982ZM17.1906 26.0928V39.7713H17.8057V26.0928H17.1906ZM17.1906 39.7714C17.1907 40.5224 17.3729 41.2619 17.7213 41.9235L18.2655 41.6369C17.9639 41.0642 17.8057 40.423 17.8057 39.7713L17.1906 39.7714ZM17.7213 41.9235C18.0697 42.5851 18.5736 43.1483 19.1883 43.5618L19.5316 43.0515C19.0024 42.6955 18.5671 42.2096 18.2655 41.6369L17.7213 41.9235ZM19.1883 43.5618C19.803 43.9754 20.509 44.2261 21.2428 44.2907L21.2967 43.678C20.6673 43.6226 20.0607 43.4075 19.5316 43.0515L19.1883 43.5618ZM21.2428 44.2907C21.9765 44.3553 22.7142 44.2318 23.3893 43.9315L23.1393 43.3695C22.5592 43.6275 21.9261 43.7334 21.2967 43.678L21.2428 44.2907ZM23.3893 43.9315L37.1377 37.8168L36.8878 37.2547L23.1393 43.3695L23.3893 43.9315ZM37.1377 37.8168C37.9311 37.4639 38.6054 36.8814 39.0785 36.1423L38.5605 35.8107C38.1513 36.4499 37.5696 36.9515 36.8878 37.2548L37.1377 37.8168ZM39.0785 36.1423C39.5516 35.4032 39.8032 34.5392 39.8033 33.6566L39.1882 33.6566C39.1881 34.4226 38.9697 35.1714 38.5605 35.8107L39.0785 36.1423ZM39.8033 33.6566V24.8261H39.1882V33.6566H39.8033ZM39.8033 24.8261C39.8033 24.5064 39.6936 24.1017 39.4059 23.7718C39.11 23.4325 38.6477 23.1978 37.9971 23.1953L37.9947 23.8104C38.4863 23.8123 38.774 23.983 38.9424 24.1761C39.119 24.3786 39.1882 24.6333 39.1882 24.8261H39.8033ZM23.3801 11.4294L11.6339 16.2826L11.8687 16.8511L23.6149 11.9979L23.3801 11.4294ZM11.6278 16.2852C10.8296 16.6353 10.1503 17.2173 9.67329 17.9579L10.1904 18.291C10.6029 17.6505 11.1889 17.1493 11.8748 16.8485L11.6278 16.2852ZM9.67329 17.9579C9.19631 18.6984 8.94217 19.5654 8.94154 20.4514L9.55663 20.4519C9.55717 19.6829 9.77781 18.9315 10.1904 18.291L9.67329 17.9579ZM8.94154 20.4516V34.133H9.55663V20.4516H8.94154ZM8.94154 34.1331C8.94164 34.8574 9.11121 35.5715 9.43641 36.2154L9.98545 35.9381C9.7039 35.3806 9.55672 34.7616 9.55663 34.133L8.94154 34.1331ZM9.43641 36.2154C9.76161 36.8594 10.2332 37.4147 10.8121 37.8344L11.1731 37.3363C10.6745 36.9749 10.267 36.4956 9.98545 35.9381L9.43641 36.2154ZM10.8121 37.8344C11.391 38.254 12.0603 38.5256 12.7638 38.6256L12.8504 38.0166C12.2468 37.9308 11.6716 37.6977 11.1731 37.3363L10.8121 37.8344ZM12.7638 38.6256C13.4674 38.7256 14.184 38.6511 14.8533 38.4085L14.6437 37.8302C14.0688 38.0385 13.4539 38.1024 12.8504 38.0166L12.7638 38.6256ZM15.056 38.1193V35.0633H14.4409V38.1193H15.056ZM14.6246 34.7818L13.7915 35.1483L14.0391 35.7113L14.8723 35.3449L14.6246 34.7818ZM13.7916 35.1483C13.6299 35.2194 13.4539 35.248 13.2792 35.232L13.2231 35.8445C13.5019 35.8701 13.7823 35.8242 14.0391 35.7114L13.7916 35.1483ZM13.2792 35.232C13.1046 35.216 12.936 35.1557 12.7887 35.056L12.444 35.5655C12.6766 35.7229 12.9443 35.819 13.2231 35.8445L13.2792 35.232ZM12.7887 35.056C12.6413 34.9563 12.5195 34.82 12.4351 34.6589L11.8903 34.9446C12.0214 35.1945 12.2114 35.4081 12.444 35.5655L12.7887 35.056ZM12.4351 34.6589C12.3505 34.4978 12.3062 34.3171 12.3063 34.1333L11.6912 34.1328C11.691 34.4157 11.7592 34.6946 11.8903 34.9446L12.4351 34.6589ZM12.3063 34.133V20.4516H11.6912V34.133H12.3063ZM12.3063 20.4516C12.3063 20.008 12.5661 19.611 12.9577 19.4355L12.7061 18.8742C12.0914 19.1497 11.6912 19.7677 11.6912 20.4516H12.3063ZM12.9502 19.4387L27.1154 13.5352L26.8788 12.9675L12.7136 18.8709L12.9502 19.4387ZM26.9971 13.5589C27.1046 13.5589 27.2267 13.54 27.3333 13.4703C27.4518 13.3928 27.516 13.2755 27.5333 13.1535C27.5488 13.0437 27.5257 12.9408 27.4978 12.8613C27.4689 12.7787 27.4267 12.6987 27.3805 12.6256C27.2881 12.4796 27.1626 12.3351 27.0329 12.2169C26.9082 12.1031 26.7539 11.99 26.5984 11.9358L26.396 12.5166C26.4367 12.5308 26.5184 12.58 26.6185 12.6713C26.7136 12.7581 26.8017 12.8613 26.8607 12.9545C26.8901 13.001 26.9081 13.0385 26.9174 13.0648C26.9277 13.0942 26.9208 13.0917 26.9242 13.0674C26.9294 13.0308 26.9532 12.9839 26.9966 12.9555C27.0281 12.9349 27.0404 12.9438 26.9971 12.9438V13.5589ZM20.0283 5.03163L20.3363 5.14905L20.5554 4.57432L20.2475 4.45691L20.0283 5.03163ZM20.5671 4.57907C20.0207 4.34457 19.4334 4.22598 18.8405 4.23068L18.8454 4.84575C19.3528 4.84172 19.856 4.94321 20.3245 5.1443L20.5671 4.57907ZM18.8405 4.23068C18.2477 4.23537 17.6622 4.36326 17.1195 4.60638L17.3709 5.16773C17.8364 4.95922 18.338 4.84977 18.8454 4.84575L18.8405 4.23068ZM17.1215 4.6055L5.04205 9.91398L5.28952 10.4771L17.3689 5.16861L17.1215 4.6055ZM5.04204 9.91398C3.74942 10.4821 2.64902 11.4261 1.87633 12.6277L2.39369 12.9604C3.10197 11.8589 4.10915 10.9959 5.28953 10.4771L5.04204 9.91398ZM1.87633 12.6277C1.10368 13.8293 0.69233 15.2362 0.692455 16.674L1.30754 16.6739C1.30743 15.3532 1.68536 14.0619 2.39369 12.9604L1.87633 12.6277ZM0.692455 16.674V28.5032H1.30754V16.674H0.692455ZM0.692455 28.5032C0.692556 29.2276 0.86213 29.9416 1.18732 30.5856L1.73637 30.3083C1.45482 29.7508 1.30763 29.1317 1.30754 28.5031L0.692455 28.5032ZM1.18732 30.5856C1.51253 31.2295 1.98407 31.7849 2.56298 32.2045L2.92397 31.7065C2.42538 31.3451 2.01791 30.8658 1.73637 30.3083L1.18732 30.5856ZM2.56298 32.2045C3.14193 32.6242 3.81122 32.8957 4.51475 32.9957L4.60132 32.3867C3.99776 32.3009 3.42252 32.0679 2.92397 31.7065L2.56298 32.2045ZM4.51475 32.9957C5.21829 33.0957 5.93489 33.0212 6.6042 32.7786L6.39458 32.2003C5.81976 32.4087 5.20487 32.4725 4.60132 32.3867L4.51475 32.9957ZM6.80693 32.4895V29.4335H6.19184V32.4895H6.80693ZM6.37556 29.152L5.5424 29.5185L5.79006 30.0815L6.62322 29.715L6.37556 29.152ZM5.54249 29.5184C5.38078 29.5895 5.2048 29.6181 5.03016 29.6021L4.97401 30.2147C5.25282 30.2402 5.53325 30.1944 5.78997 30.0815L5.54249 29.5184ZM5.03016 29.6021C4.85552 29.5861 4.68694 29.5259 4.53959 29.4262L4.19489 29.9356C4.4275 30.093 4.69521 30.1891 4.97401 30.2147L5.03016 29.6021ZM4.53959 29.4262C4.39219 29.3264 4.27045 29.1902 4.18597 29.0291L3.64122 29.3147C3.77231 29.5647 3.96232 29.7782 4.19489 29.9356L4.53959 29.4262ZM4.18597 29.0291C4.10146 28.8679 4.05708 28.6873 4.05724 28.5034L3.44215 28.5029C3.4419 28.7858 3.51016 29.0647 3.64122 29.3147L4.18597 29.0291ZM4.05724 28.5032V16.6768H3.44215V28.5032H4.05724ZM4.05724 16.6768C4.05724 15.1042 4.97229 13.6885 6.37582 13.0706L6.12801 12.5077C4.49588 13.2261 3.44215 14.8663 3.44215 16.6768H4.05724ZM6.37586 13.0706L21.6217 6.35677L21.3738 5.79385L6.12797 12.5077L6.37586 13.0706ZM21.6809 6.32234C21.7378 6.28018 21.7956 6.24053 21.8548 6.20044C21.912 6.16168 21.9738 6.12025 22.0295 6.08001C22.1256 6.01045 22.2739 5.89793 22.3429 5.73703C22.3835 5.64225 22.396 5.53388 22.3659 5.42199C22.3377 5.31732 22.2781 5.23192 22.2137 5.16351C22.0896 5.03191 21.8934 4.90738 21.638 4.77648L21.3574 5.32384C21.602 5.44923 21.7182 5.53464 21.766 5.58538C21.7875 5.60815 21.7787 5.60701 21.772 5.58205C21.7633 5.54988 21.7681 5.51666 21.7775 5.49481C21.7837 5.48021 21.7868 5.48298 21.7658 5.50357C21.7457 5.52324 21.715 5.54835 21.669 5.5816C21.6231 5.6148 21.5717 5.64928 21.5098 5.69124C21.4498 5.73187 21.3827 5.77775 21.3145 5.82828L21.6809 6.32234ZM21.5752 4.75252C20.9835 4.59858 20.4789 4.48175 20.2007 4.4228C20.1313 4.40808 20.0741 4.39658 20.0324 4.38893C20.012 4.38521 19.9922 4.38181 19.9753 4.37945C19.9674 4.37837 19.9552 4.37678 19.9417 4.37586C19.9355 4.37542 19.9229 4.37469 19.9075 4.37516C19.8998 4.3754 19.8868 4.37606 19.8709 4.37841C19.8585 4.38025 19.8255 4.38562 19.7872 4.40317C19.7565 4.4172 19.6535 4.47074 19.6178 4.60301C19.5806 4.74087 19.6483 4.84199 19.6729 4.87337C19.701 4.90918 19.7304 4.93002 19.7411 4.93736C19.755 4.94697 19.7671 4.95356 19.7741 4.95724C19.7977 4.96953 19.8193 4.97688 19.8244 4.97864C19.842 4.98473 19.8627 4.99075 19.882 4.99611C19.923 5.00753 19.9838 5.02314 20.0647 5.04297L20.2112 4.44557C20.132 4.42617 20.0786 4.41236 20.0468 4.40352C20.0297 4.39875 20.0243 4.39692 20.0256 4.39739C20.0264 4.39767 20.0293 4.39868 20.0335 4.40033C20.0366 4.40156 20.0463 4.40549 20.0588 4.412C20.065 4.41525 20.0764 4.42144 20.0898 4.43069C20.1 4.43766 20.129 4.45818 20.1569 4.4937C20.1812 4.52478 20.2488 4.62564 20.2117 4.76327C20.176 4.89531 20.0733 4.94865 20.043 4.96253C20.005 4.97991 19.9725 4.98516 19.9608 4.9869C19.9455 4.98916 19.9332 4.98975 19.9265 4.98996C19.9129 4.99038 19.9028 4.98972 19.8995 4.9895C19.892 4.98898 19.888 4.98833 19.8906 4.98869C19.8944 4.98922 19.9041 4.99077 19.9215 4.99395C19.9552 5.00012 20.0061 5.01031 20.0732 5.02452C20.341 5.08127 20.8363 5.19586 21.4203 5.3478L21.5752 4.75252ZM26.5966 11.9352L25.0968 11.4226L24.8979 12.0046L26.3977 12.5172L26.5966 11.9352ZM24.9973 11.4061H23.4975V12.0212H24.9973V11.4061Z" fill="#69A4CD" mask="url(#path-1-outside-1_1457_3184)"/>
<g filter="url(#filter0_d_1457_3184)">
<path fill-rule="evenodd" clip-rule="evenodd" d="M45.9024 19.148C46.2742 19.5198 46.8771 19.5198 47.249 19.148L47.9223 18.4746C48.2942 18.1028 48.2942 17.4999 47.9223 17.128L44.4624 13.6681L41.0208 12.2464L42.4154 15.6611L45.9024 19.148Z" fill="#99BBD3"/>
<path fill-rule="evenodd" clip-rule="evenodd" d="M49.3902 13.7124C49.9161 13.7124 50.3424 13.2861 50.3424 12.7602V11.808C50.3424 11.2821 49.9161 10.8557 49.3902 10.8557H44.4971L41.0582 12.2841L44.4589 13.7124H49.3902Z" fill="#99BBD3"/>
<path fill-rule="evenodd" clip-rule="evenodd" d="M32.7263 13.7124C32.2004 13.7124 31.774 13.2861 31.774 12.7602V11.808C31.774 11.2821 32.2004 10.8557 32.7263 10.8557H37.6193L41.0582 12.2841L37.6575 13.7124H32.7263Z" fill="#99BBD3"/>
<path fill-rule="evenodd" clip-rule="evenodd" d="M34.2088 7.45506C33.837 7.08319 33.837 6.48028 34.2088 6.10842L34.8822 5.43509C35.254 5.06323 35.8569 5.06323 36.2288 5.43509L39.6887 8.89502L41.1104 12.3366L37.6958 10.942L34.2088 7.45506Z" fill="#99BBD3"/>
<path fill-rule="evenodd" clip-rule="evenodd" d="M36.2292 19.148C35.8574 19.5198 35.2545 19.5198 34.8826 19.148L34.2093 18.4746C33.8374 18.1028 33.8374 17.4999 34.2093 17.128L37.6692 13.6681L41.1108 12.2464L39.7161 15.6611L36.2292 19.148Z" fill="#99BBD3"/>
<path fill-rule="evenodd" clip-rule="evenodd" d="M47.9221 7.45506C48.294 7.08319 48.294 6.48028 47.9221 6.10842L47.2488 5.43509C46.8769 5.06323 46.274 5.06323 45.9022 5.43509L42.4422 8.89502L41.0206 12.3366L44.4352 10.942L47.9221 7.45506Z" fill="#99BBD3"/>
<path fill-rule="evenodd" clip-rule="evenodd" d="M39.6299 20.6161C39.6299 21.142 40.0562 21.5684 40.5821 21.5684H41.5343C42.0602 21.5684 42.4865 21.142 42.4865 20.6161V15.7231L41.0582 12.2842L39.6299 15.6849V20.6161Z" fill="#99BBD3"/>
<path fill-rule="evenodd" clip-rule="evenodd" d="M39.6299 3.95222C39.6299 3.42632 40.0562 3 40.5821 3H41.5343C42.0602 3 42.4865 3.42632 42.4865 3.95222V8.84529L41.0582 12.2842L39.6299 8.88347V3.95222Z" fill="#99BBD3"/>
</g>
<defs>
<filter id="filter0_d_1457_3184" x="27.6733" y="0.949702" width="26.7697" height="26.7696" filterUnits="userSpaceOnUse" color-interpolation-filters="sRGB">
<feFlood flood-opacity="0" result="BackgroundImageFix"/>
<feColorMatrix in="SourceAlpha" type="matrix" values="0 0 0 0 0 0 0 0 0 0 0 0 0 0 0 0 0 0 127 0" result="hardAlpha"/>
<feOffset dy="2.0503"/>
<feGaussianBlur stdDeviation="2.0503"/>
<feComposite in2="hardAlpha" operator="out"/>
<feColorMatrix type="matrix" values="0 0 0 0 0 0 0 0 0 0 0 0 0 0 0 0 0 0 0.1 0"/>
<feBlend mode="normal" in2="BackgroundImageFix" result="effect1_dropShadow_1457_3184"/>
<feBlend mode="normal" in="SourceGraphic" in2="effect1_dropShadow_1457_3184" result="shape"/>
</filter>
</defs>
</svg>
