<svg width="57" height="46" viewBox="0 0 57 46" fill="none" xmlns="http://www.w3.org/2000/svg">
<g filter="url(#filter0_d_1457_3201)">
<path fill-rule="evenodd" clip-rule="evenodd" d="M46.3878 23.1711C46.8523 23.6356 47.6054 23.6356 48.07 23.1711L48.911 22.33C49.3756 21.8655 49.3756 21.1124 48.911 20.6479L44.5891 16.3259L40.29 14.5501L42.0321 18.8154L46.3878 23.1711Z" fill="#D79675"/>
<path fill-rule="evenodd" clip-rule="evenodd" d="M50.7445 16.3818C51.4014 16.3818 51.934 15.8493 51.934 15.1924V14.0029C51.934 13.346 51.4014 12.8134 50.7445 12.8134H44.6323L40.3367 14.5976L44.5846 16.3818H50.7445Z" fill="#D79675"/>
<path fill-rule="evenodd" clip-rule="evenodd" d="M29.9288 16.3818C29.2719 16.3818 28.7394 15.8493 28.7394 15.1924V14.0029C28.7394 13.346 29.2719 12.8134 29.9288 12.8134H36.041L40.3367 14.5976L36.0887 16.3818H29.9288Z" fill="#D79675"/>
<path fill-rule="evenodd" clip-rule="evenodd" d="M31.7811 8.5652C31.3166 8.10068 31.3166 7.34756 31.7811 6.88304L32.6222 6.04196C33.0867 5.57745 33.8399 5.57745 34.3044 6.04196L38.6263 10.3639L40.4022 14.663L36.1368 12.9209L31.7811 8.5652Z" fill="#D79675"/>
<path fill-rule="evenodd" clip-rule="evenodd" d="M34.3045 23.1711C33.8399 23.6356 33.0868 23.6356 32.6223 23.1711L31.7812 22.33C31.3167 21.8655 31.3167 21.1124 31.7812 20.6479L36.1032 16.3259L40.4023 14.5501L38.6601 18.8154L34.3045 23.1711Z" fill="#D79675"/>
<path fill-rule="evenodd" clip-rule="evenodd" d="M48.9108 8.5652C49.3753 8.10068 49.3753 7.34756 48.9108 6.88304L48.0697 6.04196C47.6052 5.57745 46.852 5.57745 46.3875 6.04196L42.0656 10.3639L40.2897 14.663L44.5551 12.9209L48.9108 8.5652Z" fill="#D79675"/>
<path fill-rule="evenodd" clip-rule="evenodd" d="M38.5524 25.0054C38.5524 25.6623 39.0849 26.1948 39.7418 26.1948H40.9313C41.5882 26.1948 42.1208 25.6623 42.1208 25.0054V18.8932L40.3366 14.5975L38.5524 18.8455V25.0054Z" fill="#D79675"/>
<path fill-rule="evenodd" clip-rule="evenodd" d="M42.1208 4.18947C42.1208 3.53254 41.5883 3 40.9314 3L39.7419 3C39.085 3 38.5525 3.53254 38.5525 4.18947V10.3016L40.3367 14.5973L42.1208 10.3493V4.18947Z" fill="#D79675"/>
</g>
<path d="M12.6302 14.6352C12.9211 14.6355 13.2068 14.5574 13.4598 14.4092C13.7127 14.261 13.9241 14.0478 14.0744 13.7908L16.2819 10.0225L16.4062 9.84233C16.5321 9.68642 16.6883 9.56153 16.8637 9.47574C17.0403 9.38934 17.2325 9.34455 17.4267 9.34415C17.4272 9.34415 17.4277 9.34415 17.4282 9.34415L28.1585 9.53047V9.5305H28.1615C28.7661 9.5305 29.1069 9.37921 29.2954 9.19074C29.3888 9.09732 29.4381 9.00098 29.4637 8.92431C29.4764 8.88628 29.4831 8.85345 29.4866 8.82854C29.4867 8.82814 29.4868 8.82774 29.4868 8.82734C29.8556 8.06734 29.8557 7.17999 29.4871 6.41993C29.4639 6.26873 29.3327 6.17747 29.2296 6.1261C29.1033 6.0632 28.9344 6.01629 28.7473 5.97956C28.37 5.90547 27.8699 5.86383 27.3666 5.84054C26.5405 5.80231 25.6796 5.8127 25.2977 5.81731C25.2139 5.81832 25.1531 5.81906 25.1209 5.81894H25.1203H17.4281L17.428 5.81894C16.6189 5.81916 15.8238 6.03668 15.1188 6.45012C14.4138 6.86351 13.8226 7.45875 13.4011 8.17826C13.4011 8.17828 13.401 8.17831 13.401 8.17833L11.6815 11.11H7.57365C5.78156 11.11 4.06459 11.8559 2.79997 13.1808C1.53561 14.5053 0.826629 16.3002 0.826629 18.1701V38.3004C0.826629 40.1703 1.53561 41.9652 2.79997 43.2897C4.06459 44.6146 5.78156 45.3605 7.57365 45.3605H34.8796C35.7668 45.3605 36.6451 45.1774 37.4642 44.8219C38.2834 44.4664 39.0272 43.9457 39.6533 43.2897C40.2794 42.6338 40.7757 41.8555 41.1141 40.9996C41.4525 40.1436 41.6266 39.2264 41.6266 38.3004V30.7395V30.7364C41.6266 30.4466 41.6266 29.7092 41.478 29.0404C41.4037 28.7058 41.2888 28.3723 41.1063 28.1189C40.9198 27.8597 40.6553 27.6766 40.2975 27.6766C39.7163 27.6766 39.1734 27.7407 38.7937 28.1801C38.4242 28.6078 38.2459 29.3508 38.2459 30.5904V38.3004C38.2459 39.2404 37.8894 40.1404 37.2571 40.8028C36.6251 41.4649 35.7697 41.8352 34.8796 41.8352H7.57365C6.68353 41.8352 5.82814 41.4649 5.19615 40.8028C4.56389 40.1404 4.20737 39.2404 4.20737 38.3004V18.1701C4.20737 16.2112 5.72302 14.6352 7.57365 14.6352H12.6302ZM12.6302 14.6352L12.6303 14.4619V14.6352H12.6302ZM30.502 27.1758C30.502 24.6034 29.5266 22.1348 27.7881 20.3135C26.0493 18.4919 23.6893 17.467 21.2266 17.467C18.764 17.467 16.4039 18.4919 14.6651 20.3135C12.9266 22.1348 11.9513 24.6034 11.9513 27.1758C11.9513 29.7481 12.9266 32.2167 14.6651 34.038C16.4039 35.8596 18.764 36.8845 21.2266 36.8845C23.6893 36.8845 26.0493 35.8596 27.7881 34.038C29.5266 32.2167 30.502 29.7481 30.502 27.1758ZM15.332 27.1758C15.332 25.5332 15.9549 23.9595 17.0613 22.8004C18.1675 21.6416 19.666 20.9922 21.2266 20.9922C22.7873 20.9922 24.2858 21.6416 25.3919 22.8004C26.4983 23.9595 27.1212 25.5332 27.1212 27.1758C27.1212 28.8183 26.4983 30.392 25.3919 31.5511C24.2858 32.7099 22.7873 33.3593 21.2266 33.3593C19.666 33.3593 18.1675 32.7099 17.0613 31.5511C15.9549 30.392 15.332 28.8183 15.332 27.1758Z" fill="#DF6431" stroke="#DF6431" stroke-width="0.346742"/>
<defs>
<filter id="filter0_d_1457_3201" x="24.1162" y="0.688385" width="32.441" height="32.4413" filterUnits="userSpaceOnUse" color-interpolation-filters="sRGB">
<feFlood flood-opacity="0" result="BackgroundImageFix"/>
<feColorMatrix in="SourceAlpha" type="matrix" values="0 0 0 0 0 0 0 0 0 0 0 0 0 0 0 0 0 0 127 0" result="hardAlpha"/>
<feOffset dy="2.31161"/>
<feGaussianBlur stdDeviation="2.31161"/>
<feComposite in2="hardAlpha" operator="out"/>
<feColorMatrix type="matrix" values="0 0 0 0 0 0 0 0 0 0 0 0 0 0 0 0 0 0 0.1 0"/>
<feBlend mode="normal" in2="BackgroundImageFix" result="effect1_dropShadow_1457_3201"/>
<feBlend mode="normal" in="SourceGraphic" in2="effect1_dropShadow_1457_3201" result="shape"/>
</filter>
</defs>
</svg>
