<svg width="56" height="49" viewBox="0 0 56 49" fill="none" xmlns="http://www.w3.org/2000/svg">
<path d="M7.70877 46.919C8.48978 46.9385 9.26681 46.8016 9.99408 46.5162C10.7214 46.2308 11.3842 45.8028 11.9435 45.2573C12.5028 44.7119 12.9472 44.06 13.2507 43.3401C13.5542 42.6202 13.7106 41.8468 13.7106 41.0655C13.7106 40.2843 13.5542 39.5109 13.2507 38.791C12.9472 38.0711 12.5028 37.4192 11.9435 36.8738C11.3842 36.3283 10.7214 35.9002 9.99408 35.6149C9.26681 35.3295 8.48978 35.1925 7.70877 35.2121C6.1817 35.2503 4.73003 35.8838 3.66349 36.9774C2.59695 38.0709 2 39.538 2 41.0655C2 42.5931 2.59695 44.0602 3.66349 45.1537C4.73003 46.2473 6.1817 46.8808 7.70877 46.919ZM34.0557 41.0637C34.8367 41.0833 35.6137 40.9463 36.341 40.6609C37.0683 40.3756 37.7311 39.9475 38.2904 39.402C38.8497 38.8566 39.2942 38.2047 39.5977 37.4848C39.9011 36.7649 40.0575 35.9915 40.0575 35.2103C40.0575 34.429 39.9011 33.6556 39.5977 32.9357C39.2942 32.2158 38.8497 31.564 38.2904 31.0185C37.7311 30.473 37.0683 30.045 36.341 29.7596C35.6137 29.4742 34.8367 29.3373 34.0557 29.3568C32.5286 29.395 31.077 30.0285 30.0104 31.1221C28.9439 32.2156 28.3469 33.6827 28.3469 35.2103C28.3469 36.7378 28.9439 38.2049 30.0104 39.2984C31.077 40.392 32.5286 41.0255 34.0557 41.0637Z" stroke="#449E5B" stroke-width="3.46742" stroke-linecap="round" stroke-linejoin="round"/>
<path d="M13.564 41.0639V17.2981C13.5658 16.977 13.6729 16.6653 13.869 16.411C14.065 16.1566 14.3391 15.9737 14.6492 15.8902L25.694 12.8247M13.564 24.9646L28.5835 20.9154M39.9072 35.2122V27.8502" stroke="#449E5B" stroke-width="3.46742" stroke-linecap="round" stroke-linejoin="round"/>
<g filter="url(#filter0_d_1457_3214)">
<path fill-rule="evenodd" clip-rule="evenodd" d="M45.4105 21.2062C45.8298 21.6255 46.5096 21.6255 46.9288 21.2062L47.688 20.4471C48.1072 20.0278 48.1072 19.348 47.688 18.9288L43.7871 15.0279L39.9068 13.425L41.4792 17.2749L45.4105 21.2062Z" fill="#92B38E"/>
<path fill-rule="evenodd" clip-rule="evenodd" d="M49.3429 15.0781C49.9358 15.0781 50.4165 14.5975 50.4165 14.0045V12.931C50.4165 12.338 49.9358 11.8574 49.3429 11.8574H43.8262L39.9491 13.4677L43.7832 15.0781H49.3429Z" fill="#92B38E"/>
<path fill-rule="evenodd" clip-rule="evenodd" d="M30.5552 15.0781C29.9622 15.0781 29.4816 14.5975 29.4816 14.0045V12.931C29.4816 12.338 29.9622 11.8574 30.5552 11.8574H36.0719L39.949 13.4677L36.1149 15.0781H30.5552Z" fill="#92B38E"/>
<path fill-rule="evenodd" clip-rule="evenodd" d="M32.2269 8.02281C31.8077 7.60355 31.8077 6.92379 32.2269 6.50453L32.9861 5.74539C33.4053 5.32613 34.0851 5.32613 34.5043 5.74539L38.4052 9.6463L40.0081 13.5266L36.1582 11.9541L32.2269 8.02281Z" fill="#92B38E"/>
<path fill-rule="evenodd" clip-rule="evenodd" d="M34.5044 21.2062C34.0851 21.6255 33.4054 21.6255 32.9861 21.2062L32.227 20.4471C31.8077 20.0278 31.8077 19.348 32.227 18.9288L36.1279 15.0279L40.0081 13.425L38.4357 17.2749L34.5044 21.2062Z" fill="#92B38E"/>
<path fill-rule="evenodd" clip-rule="evenodd" d="M47.6878 8.02281C48.107 7.60355 48.107 6.92379 47.6878 6.50453L46.9286 5.74539C46.5094 5.32613 45.8296 5.32613 45.4103 5.74539L41.5094 9.6463L39.9066 13.5266L43.7564 11.9541L47.6878 8.02281Z" fill="#92B38E"/>
<path fill-rule="evenodd" clip-rule="evenodd" d="M38.3386 22.8615C38.3386 23.4544 38.8193 23.9351 39.4122 23.9351H40.4858C41.0787 23.9351 41.5594 23.4544 41.5594 22.8615V17.3448L39.949 13.4676L38.3386 17.3017V22.8615Z" fill="#92B38E"/>
<path fill-rule="evenodd" clip-rule="evenodd" d="M38.3386 4.07358C38.3386 3.48066 38.8193 3 39.4122 3H40.4858C41.0787 3 41.5594 3.48066 41.5594 4.07358V9.59029L39.949 13.4674L38.3386 9.63333V4.07358Z" fill="#92B38E"/>
</g>
<defs>
<filter id="filter0_d_1457_3214" x="24.8583" y="0.688385" width="30.1814" height="30.1815" filterUnits="userSpaceOnUse" color-interpolation-filters="sRGB">
<feFlood flood-opacity="0" result="BackgroundImageFix"/>
<feColorMatrix in="SourceAlpha" type="matrix" values="0 0 0 0 0 0 0 0 0 0 0 0 0 0 0 0 0 0 127 0" result="hardAlpha"/>
<feOffset dy="2.31161"/>
<feGaussianBlur stdDeviation="2.31161"/>
<feComposite in2="hardAlpha" operator="out"/>
<feColorMatrix type="matrix" values="0 0 0 0 0 0 0 0 0 0 0 0 0 0 0 0 0 0 0.1 0"/>
<feBlend mode="normal" in2="BackgroundImageFix" result="effect1_dropShadow_1457_3214"/>
<feBlend mode="normal" in="SourceGraphic" in2="effect1_dropShadow_1457_3214" result="shape"/>
</filter>
</defs>
</svg>
